# xmcd CD database file
#
# Track frame offsets:
#	150
#	18469
#	55712
#	81795
#	101250
#	134332
#	156745
#	192320
#	210257
#	234870
#	260986
#	282718
#
# Disc length: 3916 seconds
#
# Revision: 0
# Processed by: cddbd v1.5.1PL0 Copyright (c) Steve Scherf et al.
# Submitted via: CDex 1.60beta1
#
DISCID=a90f4a0c
DTITLE=Matthew Brubeck/David Widelock - Monk/Not Monk
DYEAR=0
DGENRE=Jazz
TTITLE0=In Walked Bud
TTITLE1=Sweet And Lovely
TTITLE2=Goodbye Porkpie Hat
TTITLE3=Bye-Ya
TTITLE4=Virtual Particles
TTITLE5=St. Louis Blues
TTITLE6=Crepuscule With Nellie
TTITLE7=Babaria
TTITLE8=Nardis
TTITLE9=Fixing A Hole
TTITLE10=Windows
TTITLE11=Hard Times
EXTD=YEAR: 0
EXTT0=
EXTT1=
EXTT2=
EXTT3=
EXTT4=
EXTT5=
EXTT6=
EXTT7=
EXTT8=
EXTT9=
EXTT10=
EXTT11=
PLAYORDER=
